<?xml version="1.0" standalone="no"?>
<!DOCTYPE svg PUBLIC "-//W3C//DTD SVG 20010904//EN"
 "http://www.w3.org/TR/2001/REC-SVG-20010904/DTD/svg10.dtd">
<svg version="1.0" xmlns="http://www.w3.org/2000/svg"
 width="240.000000pt" height="240.000000pt" viewBox="0 0 240.000000 240.000000"
 preserveAspectRatio="xMidYMid meet">
<metadata>
Created by potrace 1.14, written by Peter Selinger 2001-2017
</metadata>
<g transform="translate(0.000000,240.000000) scale(0.100000,-0.100000)"
fill="#000000" stroke="none">
<path d="M961 2169 c-323 -79 -587 -318 -705 -639 -29 -80 -56 -221 -42 -226
6 -2 130 -3 275 -2 256 3 264 4 266 23 2 11 6 49 9 85 22 230 126 532 252 732
14 22 24 41 22 43 -2 1 -36 -6 -77 -16z"/>
<path d="M1360 2184 c0 -2 11 -21 24 -42 124 -197 228 -495 251 -717 3 -33 8
-75 11 -92 l5 -33 268 0 c147 0 270 3 273 6 7 6 -24 151 -47 219 -73 215 -248
430 -435 534 -64 35 -139 70 -185 86 -60 20 -165 45 -165 39z"/>
<path d="M1173 2016 c-57 -88 -158 -336 -178 -436 -3 -14 -8 -38 -11 -55 -3
-16 -7 -37 -9 -45 -3 -17 -14 -99 -19 -147 l-3 -33 247 0 248 0 -3 28 c-16
182 -69 386 -143 542 -38 82 -94 180 -102 180 -3 0 -15 -15 -27 -34z"/>
<path d="M208 1095 c-7 -7 24 -151 47 -220 73 -215 248 -430 435 -534 64 -35
139 -70 185 -86 69 -23 165 -45 164 -37 0 4 -8 19 -17 34 -149 235 -252 551
-267 818 l-1 25 -270 3 c-149 1 -273 0 -276 -3z"/>
<path d="M956 1058 c23 -185 58 -328 118 -474 36 -89 114 -234 126 -234 4 0
25 33 48 73 56 98 88 174 133 316 20 61 23 73 34 131 3 14 7 34 9 45 2 11 7
45 11 75 3 30 9 67 11 83 l4 27 -250 0 -249 0 5 -42z"/>
<path d="M1649 1098 c-3 -10 -8 -52 -13 -108 -22 -233 -124 -529 -252 -732
-13 -21 -24 -40 -24 -42 0 -7 111 21 179 44 187 65 374 211 487 380 87 131
130 239 163 413 l8 47 -273 0 c-151 0 -274 -1 -275 -2z"/>
</g>
</svg>
