<svg width="1512" height="1078" viewBox="0 0 1512 1078" fill="none" xmlns="http://www.w3.org/2000/svg">
<path d="M971.1 0C971.1 118.796 874.796 215.1 756 215.1C637.203 215.1 540.9 118.796 540.9 0C540.9 -118.797 637.203 -215.1 756 -215.1C874.796 -215.1 971.1 -118.797 971.1 0ZM756 216.1C875.349 216.1 972.1 119.349 972.1 0C972.1 -119.349 875.349 -216.1 756 -216.1C636.651 -216.1 539.9 -119.349 539.9 0C539.9 119.349 636.651 216.1 756 216.1ZM1186.7 0C1186.7 237.869 993.869 430.7 756 430.7C518.131 430.7 325.3 237.869 325.3 0C325.3 -237.869 518.131 -430.7 756 -430.7C993.869 -430.7 1186.7 -237.869 1186.7 0ZM756 431.7C994.421 431.7 1187.7 238.421 1187.7 0C1187.7 -238.421 994.421 -431.7 756 -431.7C517.579 -431.7 324.3 -238.421 324.3 0C324.3 238.421 517.579 431.7 756 431.7ZM1402.3 0C1402.3 356.942 1112.94 646.3 756 646.3C399.058 646.3 109.7 356.942 109.7 0C109.7 -356.942 399.058 -646.3 756 -646.3C1112.94 -646.3 1402.3 -356.942 1402.3 0ZM756 647.3C1113.49 647.3 1403.3 357.494 1403.3 0C1403.3 -357.494 1113.49 -647.3 756 -647.3C398.506 -647.3 108.7 -357.494 108.7 0C108.7 357.494 398.506 647.3 756 647.3ZM1617.9 0C1617.9 476.014 1232.01 861.9 756 861.9C279.986 861.9 -105.9 476.014 -105.9 0C-105.9 -476.014 279.986 -861.9 756 -861.9C1232.01 -861.9 1617.9 -476.014 1617.9 0ZM756 862.9C1232.57 862.9 1618.9 476.566 1618.9 0C1618.9 -476.567 1232.57 -862.9 756 -862.9C279.433 -862.9 -106.9 -476.567 -106.9 0C-106.9 476.566 279.433 862.9 756 862.9ZM1833.5 0C1833.5 595.087 1351.09 1077.5 756 1077.5C160.913 1077.5 -321.5 595.087 -321.5 0C-321.5 -595.087 160.913 -1077.5 756 -1077.5C1351.09 -1077.5 1833.5 -595.087 1833.5 0Z" stroke="url(#paint0_linear_102_142)" stroke-opacity="0.5"/>
<defs>
<linearGradient id="paint0_linear_102_142" x1="1834" y1="1078" x2="-322" y2="-1.60635e-05" gradientUnits="userSpaceOnUse">
<stop stop-color="#54C5AD" stop-opacity="0.5"/>
<stop offset="0.642634" stop-color="#54C5AD" stop-opacity="0.15"/>
<stop offset="1" stop-color="#54C5AD" stop-opacity="0.3"/>
</linearGradient>
</defs>
</svg>
